<svg xmlns="http://www.w3.org/2000/svg" version="1.1" xmlns:xlink="http://www.w3.org/1999/xlink" xmlns:svgjs="http://svgjs.dev/svgjs" width="100%" height="100%" viewBox="0 0 1000 600"><rect width="1000" height="600" x="0" y="0" fill="#2b1055"/><g><circle r="166.66666666666666" cx="257.34826151529944" cy="279.57048057779696" fill="#f7f7f9" transform="matrix(1.3784496579788936,0,0,1.3784496579788936,0,-85.37384910779176)"/><path d="M321.05968989629025 354.5704979605988L299.9013753341673 354.5704979605988L274.9843484204202 329.67836318163063Q265.84893495653887 332.1675766595274 256.365031605752 332.1675766595274L256.365031605752 332.1675766595274Q238.96542939525324 332.1675766595274 224.6275597625676 324.0278485868048Q210.28969012988193 315.8632283793032 201.95082497892759 301.251545264049Q193.63685196275222 286.66475428357364 193.63685196275222 268.36903522103205L193.63685196275222 268.36903522103205Q193.63685196275222 250.09820829326938 201.95082497892759 235.48652517801506Q210.28969012988193 220.87484206276073 224.6275597625676 212.73511399003817Q238.96542939525324 204.5704937825366 256.365031605752 204.5704937825366L256.365031605752 204.5704937825366Q273.9139866249246 204.5704937825366 288.2518562576102 212.73511399003817Q302.5897258902959 220.87484206276073 310.82902250213436 235.3869566388992Q319.09321124875174 249.9239633498166 319.09321124875174 268.36903522103205L319.09321124875174 268.36903522103205Q319.09321124875174 286.29137226188914 311.20240452381887 300.62924189457476Q303.31159779888594 314.9671115272604 289.5213551313376 323.2064081390989L289.5213551313376 323.2064081390989L321.05968989629025 354.5704979605988ZM210.28969012988193 268.36903522103205Q210.28969012988193 283.25453181885496 216.28869461161327 294.53066887372756Q222.31259122812355 305.8316980633791 232.79217997006913 311.9302710842263Q243.27176871201476 318.0288441050735 256.365031605752 318.0288441050735L256.365031605752 318.0288441050735Q269.4334023647103 318.0288441050735 279.9129911066559 311.9302710842263Q290.41747198338044 305.8316980633791 296.41647646511177 294.53066887372756Q302.4154809468431 283.25453181885496 302.4154809468431 268.36903522103205L302.4154809468431 268.36903522103205Q302.4154809468431 253.30929367975628 296.41647646511177 242.1078330292206Q290.41747198338044 230.90637237868492 280.0125596457718 224.8326914926167Q269.60764730816305 218.73411847176948 256.365031605752 218.73411847176948L256.365031605752 218.73411847176948Q243.09752376856198 218.73411847176948 232.69261143095326 224.8326914926167Q222.31259122812355 230.90637237868492 216.28869461161327 242.1078330292206Q210.28969012988193 253.30929367975628 210.28969012988193 268.36903522103205L210.28969012988193 268.36903522103205Z " fill="#2b1055" transform="matrix(1.3784496579788936,0,0,1.3784496579788936,0,-85.37384910779176)"/><path d="M634.7711118628431 354.5704979605988L613.6127973007201 354.5704979605988L588.6957703869729 329.67836318163063Q579.5603569230916 332.1675766595274 570.0764535723047 332.1675766595274L570.0764535723047 332.1675766595274Q552.6768513618059 332.1675766595274 538.3389817291202 324.0278485868048Q524.0011120964346 315.8632283793032 515.6622469454803 301.251545264049Q507.34827392930487 286.66475428357364 507.34827392930487 268.36903522103205L507.34827392930487 268.36903522103205Q507.34827392930487 250.09820829326938 515.6622469454803 235.48652517801506Q524.0011120964346 220.87484206276073 538.3389817291202 212.73511399003817Q552.6768513618059 204.5704937825366 570.0764535723047 204.5704937825366L570.0764535723047 204.5704937825366Q587.6254085914773 204.5704937825366 601.9632782241629 212.73511399003817Q616.3011478568485 220.87484206276073 624.5404444686872 235.3869566388992Q632.8046332153044 249.9239633498166 632.8046332153044 268.36903522103205L632.8046332153044 268.36903522103205Q632.8046332153044 286.29137226188914 624.9138264903715 300.62924189457476Q617.0230197654387 314.9671115272604 603.2327770978902 323.2064081390989L603.2327770978902 323.2064081390989L634.7711118628431 354.5704979605988ZM524.0011120964346 268.36903522103205Q524.0011120964346 283.25453181885496 530.000116578166 294.53066887372756Q536.0240131946762 305.8316980633791 546.5036019366219 311.9302710842263Q556.9831906785673 318.0288441050735 570.0764535723047 318.0288441050735L570.0764535723047 318.0288441050735Q583.144824331263 318.0288441050735 593.6244130732085 311.9302710842263Q604.1288939499332 305.8316980633791 610.1278984316646 294.53066887372756Q616.1269029133957 283.25453181885496 616.1269029133957 268.36903522103205L616.1269029133957 268.36903522103205Q616.1269029133957 253.30929367975628 610.1278984316646 242.1078330292206Q604.1288939499332 230.90637237868492 593.7239816123245 224.8326914926167Q583.3190692747157 218.73411847176948 570.0764535723047 218.73411847176948L570.0764535723047 218.73411847176948Q556.8089457351145 218.73411847176948 546.4040333975059 224.8326914926167Q536.0240131946762 230.90637237868492 530.000116578166 242.1078330292206Q524.0011120964346 253.30929367975628 524.0011120964346 268.36903522103205L524.0011120964346 268.36903522103205Z " fill="#f7f7f9" transform="matrix(1.3784496579788936,0,0,1.3784496579788936,0,-85.37384910779176)"/></g></svg>